<svg width="20" height="19" viewBox="0 0 20 19" fill="none" xmlns="http://www.w3.org/2000/svg">
<path fill-rule="evenodd" clip-rule="evenodd" d="M10.8135 0.614587C10.3642 0.165255 9.63569 0.165255 9.18636 0.614587C8.73703 1.06392 8.73703 1.79243 9.18636 2.24176L15.2763 8.33169H1.94584C1.31039 8.33169 0.795258 8.84682 0.795258 9.48228C0.795258 10.1177 1.31039 10.6329 1.94584 10.6329H15.2763L9.18636 16.7228C8.73703 17.1721 8.73703 17.9006 9.18636 18.35C9.63569 18.7993 10.3642 18.7993 10.8135 18.35L18.8668 10.2967C18.8696 10.2939 18.8724 10.2911 18.8751 10.2883C19.0782 10.0815 19.2037 9.79827 19.2046 9.48573C19.2046 9.48458 19.2046 9.48343 19.2046 9.48228C19.2046 9.48112 19.2046 9.47997 19.2046 9.47882C19.2042 9.32407 19.1732 9.17651 19.1173 9.04185C19.0625 8.90923 18.9817 8.78478 18.8751 8.67623C18.8724 8.67347 18.8697 8.67072 18.8669 8.66798M18.8669 8.66798L10.8135 0.614587L18.8669 8.66798Z" fill="white"/>
</svg>
