<svg width="56" height="56" viewBox="0 0 56 56" fill="none" xmlns="http://www.w3.org/2000/svg">
<path d="M7 28C7 39.598 16.402 49 28 49C39.598 49 49 39.598 49 28C49 16.402 39.598 7 28 7C16.402 7 7 16.402 7 28Z" fill="#FCF5FF"/>
<path d="M7 28C7 39.598 16.402 49 28 49C39.598 49 49 39.598 49 28C49 16.402 39.598 7 28 7C16.402 7 7 16.402 7 28Z" stroke="#9B1AD6" stroke-width="3" stroke-linecap="round" stroke-linejoin="round"/>
<path d="M35 30.3333L28 23.3333L21 30.3333" stroke="#9B1AD6" stroke-width="3" stroke-linecap="round" stroke-linejoin="round"/>
</svg>
