<svg width="20" height="20" viewBox="0 0 20 20" fill="none" xmlns="http://www.w3.org/2000/svg">
<path d="M8.16668 7.93751C7.78699 7.93751 7.47918 7.62971 7.47918 7.25001C7.47918 6.87031 7.78699 6.56251 8.16668 6.56251H11.8334C12.1114 6.56251 12.3621 6.73001 12.4685 6.98692C12.5749 7.24382 12.5161 7.53952 12.3195 7.73615L9.82646 10.2292H11.8334C12.213 10.2292 12.5209 10.537 12.5209 10.9167C12.5209 11.2964 12.213 11.6042 11.8334 11.6042H8.16668C7.88862 11.6042 7.63793 11.4367 7.53152 11.1798C7.42511 10.9229 7.48392 10.6272 7.68055 10.4305L10.1736 7.93751H8.16668Z" fill="#1C274C"/>
<path fill-rule="evenodd" clip-rule="evenodd" d="M2.89591 7.25001C2.89591 3.32649 6.07655 0.145844 10.0001 0.145844C13.9236 0.145844 17.1042 3.32649 17.1042 7.25001V7.89544C17.1042 8.53428 17.2933 9.15883 17.6477 9.69038L18.7006 11.2697C19.9226 13.1027 18.9897 15.5942 16.8643 16.1739C16.1716 16.3628 15.4731 16.5226 14.7705 16.6533L14.7688 16.6579C14.0639 18.5388 12.1798 19.8542 10 19.8542C7.82019 19.8542 5.93616 18.5388 5.23124 16.6579L5.2295 16.6533C4.52697 16.5226 3.82847 16.3628 3.13583 16.1739C1.01045 15.5942 0.0775532 13.1027 1.29956 11.2697L2.35244 9.69038C2.70681 9.15883 2.89591 8.53428 2.89591 7.89544V7.25001ZM6.90491 16.9089C7.55661 17.8453 8.69014 18.4792 10 18.4792C11.3099 18.4792 12.4434 17.8453 13.0951 16.9089C11.0391 17.1545 8.96095 17.1545 6.90491 16.9089ZM10.0001 1.52084C6.83595 1.52084 4.27091 4.08588 4.27091 7.25001V7.89544C4.27091 8.80574 4.00146 9.69568 3.49651 10.4531L2.44363 12.0324C1.74222 13.0845 2.27769 14.5146 3.49761 14.8473C7.75485 16.0084 12.2453 16.0084 16.5025 14.8473C17.7225 14.5146 18.2579 13.0845 17.5565 12.0324L16.5036 10.4531C15.9987 9.69568 15.7292 8.80574 15.7292 7.89544V7.25001C15.7292 4.08588 13.1642 1.52084 10.0001 1.52084Z" fill="#1C274C"/>
</svg>
