<svg width="57" height="57" viewBox="0 0 57 57" fill="none" xmlns="http://www.w3.org/2000/svg">
<circle cx="28.5" cy="28.9648" r="28" fill="#BF83FF"/>
<mask id="mask0_126_2538" style="mask-type:alpha" maskUnits="userSpaceOnUse" x="0" y="0" width="57" height="57">
<circle cx="28.5" cy="28.9648" r="28" fill="#C4C4C4"/>
</mask>
<g mask="url(#mask0_126_2538)">
<path fill-rule="evenodd" clip-rule="evenodd" d="M28.5 15.4612C22.8767 15.4612 18.3182 20.0197 18.3182 25.643V26.6793C17.2863 26.8524 16.5 27.7499 16.5 28.831V31.3245C16.5 32.4275 17.3184 33.3393 18.3811 33.4857C18.7785 37.0565 21.0224 40.0698 24.1364 41.549V44.8962C16.4351 45.3107 10.3182 51.6866 10.3182 59.4913H46.6818C46.6818 51.6866 40.5649 45.3107 32.8636 44.8962V41.549C35.9775 40.0698 38.2215 37.0565 38.6188 33.4858C39.6816 33.3393 40.5 32.4275 40.5 31.3245V28.831C40.5 27.7499 39.7137 26.8524 38.6818 26.6793V25.643C38.6818 20.0197 34.1233 15.4612 28.5 15.4612Z" fill="#D0C6AC"/>
<mask id="mask1_126_2538" style="mask-type:luminance" maskUnits="userSpaceOnUse" x="10" y="15" width="37" height="45">
<path fill-rule="evenodd" clip-rule="evenodd" d="M28.5 15.4612C22.8767 15.4612 18.3182 20.0197 18.3182 25.643V26.6793C17.2863 26.8524 16.5 27.7499 16.5 28.831V31.3245C16.5 32.4275 17.3184 33.3393 18.3811 33.4857C18.7785 37.0565 21.0224 40.0698 24.1364 41.549V44.8962C16.4351 45.3107 10.3182 51.6866 10.3182 59.4913H46.6818C46.6818 51.6866 40.5649 45.3107 32.8636 44.8962V41.549C35.9775 40.0698 38.2215 37.0565 38.6188 33.4858C39.6816 33.3393 40.5 32.4275 40.5 31.3245V28.831C40.5 27.7499 39.7137 26.8524 38.6818 26.6793V25.643C38.6818 20.0197 34.1233 15.4612 28.5 15.4612Z" fill="white"/>
</mask>
<g mask="url(#mask1_126_2538)">
<rect width="48" height="44.0301" transform="translate(4.5 15.4612)" fill="#FFCCD7"/>
<rect x="4.5" y="15.4612" width="48" height="44.0301" fill="#FFCCD7"/>
<path fill-rule="evenodd" clip-rule="evenodd" d="M18.3182 32.3469V33.7905C18.3182 39.4138 22.8767 43.9724 28.5 43.9724C34.1233 43.9724 38.6818 39.4138 38.6818 33.7905V32.3469C38.6818 37.9702 34.1233 42.5287 28.5 42.5287C22.8767 42.5287 18.3182 37.9702 18.3182 32.3469Z" fill="black" fill-opacity="0.1"/>
</g>
<path fill-rule="evenodd" clip-rule="evenodd" d="M28.5909 51.5203C33.5615 51.5203 37.5909 49.1386 37.5909 46.2006C37.5909 46.1192 37.5878 46.0383 37.5817 45.9578C42.9194 48.132 46.6818 53.3723 46.6818 59.4913H10.3182C10.3182 53.3005 14.1694 48.0092 19.6067 45.8826C19.5962 45.9878 19.5909 46.0938 19.5909 46.2006C19.5909 49.1386 23.6203 51.5203 28.5909 51.5203Z" fill="#6223A9"/>
<mask id="mask2_126_2538" style="mask-type:luminance" maskUnits="userSpaceOnUse" x="10" y="45" width="37" height="15">
<path fill-rule="evenodd" clip-rule="evenodd" d="M28.5909 51.5203C33.5615 51.5203 37.5909 49.1386 37.5909 46.2006C37.5909 46.1192 37.5878 46.0383 37.5817 45.9578C42.9194 48.132 46.6818 53.3723 46.6818 59.4913H10.3182C10.3182 53.3005 14.1694 48.0092 19.6067 45.8826C19.5962 45.9878 19.5909 46.0938 19.5909 46.2006C19.5909 49.1386 23.6203 51.5203 28.5909 51.5203Z" fill="white"/>
</mask>
<g mask="url(#mask2_126_2538)">
<rect x="4.5" y="39.6416" width="48" height="19.8496" fill="#6223A9"/>
</g>
<path fill-rule="evenodd" clip-rule="evenodd" d="M25.9546 35.8521C25.9546 37.2473 27.0942 38.3784 28.5 38.3784C29.9058 38.3784 31.0455 37.2473 31.0455 35.8521" fill="#0C092A"/>
<g opacity="0.3">
<path fill-rule="evenodd" clip-rule="evenodd" d="M26.3182 32.4233C26.3182 33.2206 27.295 33.8669 28.5 33.8669C29.705 33.8669 30.6818 33.2206 30.6818 32.4233" fill="#0C092A"/>
</g>
<ellipse cx="23.7727" cy="29.1752" rx="1.09091" ry="1.08271" fill="#0C092A"/>
<ellipse cx="33.2273" cy="29.1752" rx="1.09091" ry="1.08271" fill="#0C092A"/>
<path d="M21.16 26.8581C21.8718 25.864 23.8232 25.3066 25.5042 25.7163C25.6992 25.7639 25.8961 25.6455 25.944 25.4519C25.9919 25.2583 25.8726 25.0629 25.6776 25.0153C23.7255 24.5396 21.4658 25.185 20.5672 26.44C20.4509 26.6024 20.4893 26.8278 20.653 26.9432C20.8167 27.0587 21.0437 27.0206 21.16 26.8581Z" fill="#0C092A"/>
<path d="M35.84 26.8581C35.1282 25.864 33.1768 25.3066 31.4958 25.7163C31.3008 25.7639 31.1039 25.6455 31.056 25.4519C31.0081 25.2583 31.1274 25.0629 31.3224 25.0153C33.2745 24.5396 35.5342 25.185 36.4328 26.44C36.5491 26.6024 36.5107 26.8278 36.347 26.9432C36.1833 27.0587 35.9563 27.0206 35.84 26.8581Z" fill="#0C092A"/>
<mask id="mask3_126_2538" style="mask-type:luminance" maskUnits="userSpaceOnUse" x="4" y="8" width="49" height="52">
<rect x="4.5" y="8.96484" width="48" height="50.5263" fill="white"/>
</mask>
<g mask="url(#mask3_126_2538)">
<path fill-rule="evenodd" clip-rule="evenodd" d="M11.5909 35.1302C11.4787 29.5658 16.7398 17.9504 18.6818 15.6415C20.1224 13.9288 24.081 12.4927 28.5001 12.5738C32.9191 12.6549 37.0204 13.6226 38.5001 15.461C40.7408 18.245 45.3853 28.8286 45.4091 35.1302C45.4261 39.6054 43.675 44.0914 41.2273 44.3332C39.8453 44.4698 38.0898 44.2925 35.9803 44.0796L35.9801 44.0796L35.98 44.0795L35.9798 44.0795L35.9797 44.0795C35.0144 43.9821 33.9751 43.8771 32.8636 43.7914V41.5489C36.3036 39.9148 38.6818 36.4086 38.6818 32.3469V27.2921C36.7712 26.2474 35.1447 24.9862 33.7896 23.7047C34.3997 24.8307 35.0975 25.8532 35.8843 26.6261C30.3238 25.0777 26.4799 21.9068 24.1763 19.4207C23.1173 21.42 21.2206 24.3438 18.3182 26.571V32.3469C18.3182 36.4086 20.6964 39.9148 24.1364 41.5489V43.9264C22.8722 44.0982 21.6972 44.3162 20.616 44.5167C18.6435 44.8826 16.9828 45.1907 15.6609 45.0551C13.0749 44.7899 11.6812 39.6046 11.5909 35.1302Z" fill="#E6E6E6"/>
<mask id="mask4_126_2538" style="mask-type:luminance" maskUnits="userSpaceOnUse" x="11" y="12" width="35" height="34">
<path fill-rule="evenodd" clip-rule="evenodd" d="M11.5909 35.1302C11.4787 29.5658 16.7398 17.9504 18.6818 15.6415C20.1224 13.9288 24.081 12.4927 28.5001 12.5738C32.9191 12.6549 37.0204 13.6226 38.5001 15.461C40.7408 18.245 45.3853 28.8286 45.4091 35.1302C45.4261 39.6054 43.675 44.0914 41.2273 44.3332C39.8453 44.4698 38.0898 44.2925 35.9803 44.0796L35.9801 44.0796L35.98 44.0795L35.9798 44.0795L35.9797 44.0795C35.0144 43.9821 33.9751 43.8771 32.8636 43.7914V41.5489C36.3036 39.9148 38.6818 36.4086 38.6818 32.3469V27.2921C36.7712 26.2474 35.1447 24.9862 33.7896 23.7047C34.3997 24.8307 35.0975 25.8532 35.8843 26.6261C30.3238 25.0777 26.4799 21.9068 24.1763 19.4207C23.1173 21.42 21.2206 24.3438 18.3182 26.571V32.3469C18.3182 36.4086 20.6964 39.9148 24.1364 41.5489V43.9264C22.8722 44.0982 21.6972 44.3162 20.616 44.5167C18.6435 44.8826 16.9828 45.1907 15.6609 45.0551C13.0749 44.7899 11.6812 39.6046 11.5909 35.1302Z" fill="white"/>
</mask>
<g mask="url(#mask4_126_2538)">
<rect x="4.31818" y="8.96484" width="48.3636" height="50.5263" fill="#0C092A"/>
</g>
</g>
</g>
</svg>
