<svg width="25" height="24" viewBox="0 0 25 24" fill="none" xmlns="http://www.w3.org/2000/svg">
<path d="M9.50003 10.5C9.50003 10.3011 9.57905 10.1103 9.7197 9.96964C9.86035 9.82899 10.0511 9.74997 10.25 9.74997H14.75C14.9489 9.74997 15.1397 9.82899 15.2804 9.96964C15.421 10.1103 15.5 10.3011 15.5 10.5C15.5 10.6989 15.421 10.8897 15.2804 11.0303C15.1397 11.171 14.9489 11.25 14.75 11.25H10.25C10.0511 11.25 9.86035 11.171 9.7197 11.0303C9.57905 10.8897 9.50003 10.6989 9.50003 10.5ZM10.25 12.75C10.0511 12.75 9.86035 12.829 9.7197 12.9696C9.57905 13.1103 9.50003 13.3011 9.50003 13.5C9.50003 13.6989 9.57905 13.8897 9.7197 14.0303C9.86035 14.171 10.0511 14.25 10.25 14.25H13.25C13.4489 14.25 13.6397 14.171 13.7804 14.0303C13.921 13.8897 14 13.6989 14 13.5C14 13.3011 13.921 13.1103 13.7804 12.9696C13.6397 12.829 13.4489 12.75 13.25 12.75H10.25ZM3.50003 12C3.50041 10.0185 4.15467 8.09262 5.3613 6.52097C6.56794 4.94931 8.2595 3.81978 10.1736 3.30759C12.0877 2.79541 14.1173 2.9292 15.9476 3.68821C17.7779 4.44722 19.3065 5.78902 20.2964 7.50547C21.2863 9.22191 21.6821 11.2171 21.4224 13.1814C21.1627 15.1457 20.262 16.9694 18.86 18.3697C17.458 19.7699 15.6332 20.6683 13.6685 20.9255C11.7039 21.1828 9.70923 20.7845 7.99403 19.7925L4.48703 20.9625C4.35746 21.0057 4.21854 21.0128 4.08526 20.9829C3.95198 20.953 3.8294 20.8872 3.73075 20.7927C3.6321 20.6982 3.56112 20.5786 3.52549 20.4467C3.48985 20.3149 3.4909 20.1758 3.52853 20.0445L4.59653 16.308C3.87656 14.9862 3.49956 13.5051 3.50003 12ZM12.5 4.49997C11.1758 4.49989 9.87516 4.85042 8.73031 5.51593C7.58547 6.18144 6.63723 7.13821 5.98201 8.28897C5.32678 9.43974 4.98792 10.7435 4.99986 12.0676C5.01181 13.3918 5.37414 14.6892 6.05003 15.828C6.10203 15.9159 6.13551 16.0136 6.14841 16.115C6.1613 16.2163 6.15335 16.3193 6.12503 16.4175L5.36153 19.0875L7.84853 18.2595C7.95415 18.2242 8.0663 18.2129 8.17682 18.2264C8.28735 18.2399 8.39349 18.2779 8.48753 18.3375C9.47043 18.9595 10.5846 19.3444 11.7418 19.4617C12.8991 19.579 14.0678 19.4256 15.1555 19.0135C16.2433 18.6013 17.2203 17.9419 18.0092 17.0871C18.7982 16.2324 19.3776 15.2059 19.7015 14.0887C20.0255 12.9715 20.0852 11.7943 19.8758 10.6501C19.6665 9.50592 19.1938 8.42609 18.4953 7.49599C17.7967 6.56589 16.8914 5.81102 15.8509 5.29105C14.8104 4.77107 13.6632 4.50025 12.5 4.49997Z" fill="white"/>
</svg>
