<svg width="24" height="24" viewBox="0 0 24 24" fill="none" xmlns="http://www.w3.org/2000/svg">
<g clip-path="url(#clip0_12_2175)">
<path d="M3.0498 9.30971C3.00729 9.18276 2.9907 9.04858 3.00102 8.9151C3.01134 8.78163 3.04836 8.65158 3.10987 8.53268C3.17139 8.41378 3.25615 8.30844 3.35914 8.2229C3.46213 8.13737 3.58124 8.07339 3.70941 8.03475C3.83759 7.99611 3.97222 7.9836 4.10532 7.99796C4.23842 8.01232 4.36728 8.05326 4.48427 8.11835C4.60125 8.18344 4.70397 8.27136 4.78634 8.37689C4.86871 8.48242 4.92906 8.60342 4.9638 8.73271C7.0498 15.7187 16.9458 15.7197 19.0338 8.73671C19.0712 8.61077 19.1331 8.49344 19.2159 8.39141C19.2986 8.28938 19.4007 8.20465 19.5162 8.14207C19.6317 8.07948 19.7584 8.04026 19.8891 8.02664C20.0198 8.01303 20.1519 8.02528 20.2778 8.06271C20.4037 8.10013 20.5211 8.162 20.6231 8.24477C20.7251 8.32755 20.8099 8.4296 20.8724 8.54512C20.935 8.66063 20.9742 8.78735 20.9879 8.91802C21.0015 9.04869 20.9892 9.18077 20.9518 9.30671C20.588 10.5579 19.9709 11.721 19.1388 12.7237L20.4138 13.9997C20.596 14.1883 20.6967 14.4409 20.6945 14.7031C20.6922 14.9653 20.587 15.2161 20.4016 15.4015C20.2162 15.5869 19.9654 15.6921 19.7032 15.6944C19.441 15.6967 19.1884 15.5959 18.9998 15.4137L17.6888 14.1027C16.9813 14.6362 16.1997 15.0637 15.3688 15.3717L15.7258 16.7067C15.7639 16.8348 15.7759 16.9691 15.7612 17.1019C15.7465 17.2347 15.7053 17.3632 15.6401 17.4798C15.5749 17.5964 15.487 17.6988 15.3816 17.7808C15.2762 17.8629 15.1554 17.923 15.0264 17.9576C14.8974 17.9922 14.7627 18.0007 14.6304 17.9824C14.498 17.9641 14.3707 17.9194 14.2559 17.8511C14.1411 17.7828 14.0411 17.6922 13.9619 17.5846C13.8827 17.477 13.8259 17.3546 13.7948 17.2247L13.4308 15.8677C12.4838 16.0077 11.5158 16.0077 10.5688 15.8677L10.2048 17.2247C10.1737 17.3546 10.1168 17.477 10.0376 17.5846C9.95845 17.6922 9.8585 17.7828 9.7437 17.8511C9.6289 17.9194 9.50157 17.9641 9.36923 17.9824C9.2369 18.0007 9.10224 17.9922 8.97321 17.9576C8.84418 17.923 8.72339 17.8629 8.61797 17.7808C8.51256 17.6988 8.42466 17.5964 8.35947 17.4798C8.29427 17.3632 8.2531 17.2347 8.23839 17.1019C8.22367 16.9691 8.23571 16.8348 8.2738 16.7067L8.6308 15.3717C7.79985 15.0634 7.01829 14.6355 6.3108 14.1017L5.0008 15.4137C4.81329 15.6015 4.55887 15.7071 4.2935 15.7073C4.02814 15.7075 3.77357 15.6022 3.5858 15.4147C3.39802 15.2272 3.29243 14.9728 3.29224 14.7074C3.29205 14.4421 3.39729 14.1875 3.5848 13.9997L4.8598 12.7247C4.0758 11.7887 3.4498 10.6507 3.0478 9.31071L3.0498 9.30971Z" fill="#2BA1FF"/>
</g>
<defs>
<clipPath id="clip0_12_2175">
<rect width="24" height="24" fill="white"/>
</clipPath>
</defs>
</svg>
