<svg width="20" height="20" viewBox="0 0 20 20" fill="none" xmlns="http://www.w3.org/2000/svg">
<path fill-rule="evenodd" clip-rule="evenodd" d="M10.0002 0.145844C8.32477 0.145844 6.93956 0.293417 5.87358 0.473272L5.74996 0.49402C4.82392 0.649032 4.05423 0.777873 3.4524 1.51909C3.06645 1.99443 2.94191 2.50815 2.91321 3.08202L2.46216 3.23237C2.03763 3.37385 1.66553 3.49786 1.37033 3.63519C1.0512 3.78366 0.75873 3.97489 0.535148 4.2851C0.311567 4.59531 0.222644 4.93324 0.182728 5.28295C0.145805 5.60643 0.145838 5.99865 0.145876 6.44613L0.14588 6.57926C0.14587 6.94759 0.14586 7.2729 0.173053 7.54499C0.202523 7.83986 0.267785 8.12653 0.430803 8.40358C0.593821 8.68063 0.812727 8.87689 1.05619 9.04585C1.28083 9.20176 1.56521 9.35973 1.88719 9.53859L4.30825 10.8837C4.8027 11.8564 5.48193 12.7237 6.41603 13.3502C7.22915 13.8956 8.20502 14.2379 9.36095 14.3294C9.32972 14.408 9.31254 14.4937 9.31254 14.5833V16.1875H8.00153C7.23686 16.1875 6.57848 16.7272 6.42852 17.4771L6.2281 18.4792H4.50004C4.12034 18.4792 3.81254 18.787 3.81254 19.1667C3.81254 19.5464 4.12034 19.8542 4.50004 19.8542H15.5C15.8797 19.8542 16.1875 19.5464 16.1875 19.1667C16.1875 18.787 15.8797 18.4792 15.5 18.4792H13.772L13.5716 17.4771C13.4216 16.7272 12.7632 16.1875 11.9986 16.1875H10.6875V14.5833C10.6875 14.4937 10.6704 14.408 10.6391 14.3295C11.7952 14.238 12.7711 13.8956 13.5843 13.3502C14.5185 12.7237 15.1978 11.8563 15.6922 10.8834L18.1129 9.53859C18.4348 9.35973 18.7192 9.20176 18.9439 9.04585C19.1873 8.87689 19.4062 8.68063 19.5692 8.40358C19.7323 8.12653 19.7975 7.83986 19.827 7.54499C19.8542 7.27291 19.8542 6.94762 19.8542 6.57932L19.8542 6.44615C19.8542 5.99865 19.8542 5.60643 19.8173 5.28295C19.7774 4.93324 19.6885 4.59531 19.4649 4.2851C19.2413 3.97489 18.9488 3.78366 18.6297 3.63519C18.3345 3.49786 17.9624 3.37385 17.5379 3.23237L17.0872 3.08213C17.0585 2.50821 16.9339 1.99446 16.548 1.51909C15.9461 0.777873 15.1764 0.649032 14.2504 0.49402L14.1268 0.473272C13.0608 0.293417 11.6756 0.145844 10.0002 0.145844ZM12.3698 18.4792L12.2233 17.7467C12.2019 17.6396 12.1078 17.5625 11.9986 17.5625H8.00153C7.89229 17.5625 7.79824 17.6396 7.77682 17.7467L7.63033 18.4792H12.3698ZM2.93116 4.52542L2.94363 4.52126C3.00924 5.91487 3.16665 7.45513 3.55861 8.89422L2.58172 8.3515C2.225 8.15331 2.00164 8.02831 1.84014 7.91624C1.69126 7.81291 1.64277 7.75199 1.61587 7.70627C1.58896 7.66055 1.55926 7.58858 1.54124 7.40825C1.52169 7.21265 1.52089 6.9567 1.52088 6.54861L1.52088 6.48213C1.52087 5.98798 1.5219 5.67509 1.54886 5.43888C1.57381 5.22024 1.61466 5.13896 1.65062 5.08906C1.68658 5.03917 1.75077 4.97471 1.9503 4.88189C2.16586 4.78161 2.46236 4.68168 2.93116 4.52542ZM17.0567 4.52136C16.9911 5.91488 16.8337 7.45501 16.4418 8.89401L17.4183 8.3515C17.775 8.15331 17.9984 8.02831 18.1599 7.91624C18.3088 7.81291 18.3573 7.75199 18.3842 7.70627C18.4111 7.66055 18.4408 7.58858 18.4588 7.40825C18.4784 7.21265 18.4792 6.9567 18.4792 6.54861L18.4792 6.48213C18.4792 5.98798 18.4781 5.67509 18.4512 5.43888C18.4262 5.22024 18.3854 5.13896 18.3494 5.08906C18.3135 5.03917 18.2493 4.97471 18.0497 4.88189C17.8342 4.78161 17.5377 4.68168 17.0689 4.52542L17.0567 4.52136ZM6.10234 1.82911C7.09713 1.66126 8.40576 1.52084 10.0002 1.52084C11.5946 1.52084 12.9032 1.66126 13.898 1.82911C15.0044 2.01577 15.2368 2.0856 15.4805 2.3858C15.7207 2.68164 15.7435 2.96144 15.6942 4.20367C15.612 6.2741 15.3389 8.50835 14.4931 10.2076C14.0755 11.0463 13.5296 11.7313 12.8184 12.2083C12.1118 12.6822 11.2002 12.9792 10.0002 12.9792C8.80021 12.9792 7.88856 12.6822 7.18192 12.2083C6.47072 11.7313 5.92483 11.0463 5.50731 10.2076C4.66147 8.50835 4.38835 6.2741 4.30615 4.20367C4.25683 2.96144 4.27964 2.68164 4.51985 2.3858C4.76359 2.0856 4.996 2.01577 6.10234 1.82911Z" fill="#1C274C"/>
</svg>
