<svg width="20" height="18" viewBox="0 0 20 18" fill="none" xmlns="http://www.w3.org/2000/svg">
<path fill-rule="evenodd" clip-rule="evenodd" d="M13.4375 3.5C13.4375 1.60152 11.8984 0.0625 9.99996 0.0625C8.10148 0.0625 6.56246 1.60152 6.56246 3.5C6.56246 5.39848 8.10148 6.9375 9.99996 6.9375C11.8984 6.9375 13.4375 5.39848 13.4375 3.5ZM9.99996 1.4375C11.139 1.4375 12.0625 2.36091 12.0625 3.5C12.0625 4.63909 11.139 5.5625 9.99996 5.5625C8.86087 5.5625 7.93746 4.63909 7.93746 3.5C7.93746 2.36091 8.86087 1.4375 9.99996 1.4375Z" fill="#1C274C"/>
<path fill-rule="evenodd" clip-rule="evenodd" d="M7.47913 14.5C7.47913 12.6015 5.9401 11.0625 4.04163 11.0625C2.14315 11.0625 0.604126 12.6015 0.604126 14.5C0.604126 16.3985 2.14315 17.9375 4.04163 17.9375C5.9401 17.9375 7.47913 16.3985 7.47913 14.5ZM4.04163 12.4375C5.18071 12.4375 6.10413 13.3609 6.10413 14.5C6.10413 15.6391 5.18071 16.5625 4.04163 16.5625C2.90254 16.5625 1.97913 15.6391 1.97913 14.5C1.97913 13.3609 2.90254 12.4375 4.04163 12.4375Z" fill="#1C274C"/>
<path fill-rule="evenodd" clip-rule="evenodd" d="M15.9583 11.0625C17.8568 11.0625 19.3958 12.6015 19.3958 14.5C19.3958 16.3985 17.8568 17.9375 15.9583 17.9375C14.0598 17.9375 12.5208 16.3985 12.5208 14.5C12.5208 12.6015 14.0598 11.0625 15.9583 11.0625ZM18.0208 14.5C18.0208 13.3609 17.0974 12.4375 15.9583 12.4375C14.8192 12.4375 13.8958 13.3609 13.8958 14.5C13.8958 15.6391 14.8192 16.5625 15.9583 16.5625C17.0974 16.5625 18.0208 15.6391 18.0208 14.5Z" fill="#1C274C"/>
<path d="M5.60425 4.93212C5.88892 4.68086 5.91601 4.2464 5.66476 3.96173C5.4135 3.67705 4.97904 3.64996 4.69437 3.90122C3.03032 5.36992 1.97913 7.52097 1.97913 9.91669C1.97913 10.2964 2.28693 10.6042 2.66663 10.6042C3.04632 10.6042 3.35413 10.2964 3.35413 9.91669C3.35413 7.93184 4.22338 6.15088 5.60425 4.93212Z" fill="#1C274C"/>
<path d="M15.3055 3.90122C15.0209 3.64996 14.5864 3.67705 14.3352 3.96173C14.0839 4.2464 14.111 4.68086 14.3957 4.93212C15.7765 6.15088 16.6458 7.93184 16.6458 9.91669C16.6458 10.2964 16.9536 10.6042 17.3333 10.6042C17.713 10.6042 18.0208 10.2964 18.0208 9.91669C18.0208 7.52097 16.9696 5.36992 15.3055 3.90122Z" fill="#1C274C"/>
<path d="M8.33799 16.3532C7.97028 16.2586 7.59547 16.4799 7.50082 16.8476C7.40618 17.2153 7.62755 17.5902 7.99526 17.6848C8.63674 17.8499 9.30862 17.9375 9.99996 17.9375C10.6913 17.9375 11.3632 17.8499 12.0047 17.6848C12.3724 17.5902 12.5937 17.2153 12.4991 16.8476C12.4044 16.4799 12.0296 16.2586 11.6619 16.3532C11.1315 16.4897 10.5747 16.5625 9.99996 16.5625C9.4252 16.5625 8.86845 16.4897 8.33799 16.3532Z" fill="#1C274C"/>
</svg>
