<?xml version="1.0" encoding="UTF-8"?>
<svg width="24px" height="24px" viewBox="0 0 24 24" version="1.1" xmlns="http://www.w3.org/2000/svg" xmlns:xlink="http://www.w3.org/1999/xlink">
    <g stroke="none" stroke-width="1" fill="none" fill-rule="evenodd">
        <path d="M12,2.69 L17.66,8.35 C19.64,10.33 19.64,13.5 17.66,15.48 C16.67,16.47 15.35,17 14,17 C12.65,17 11.33,16.47 10.34,15.48 C8.36,13.5 8.36,10.33 10.34,8.35 L12,6.69 L12,2.69 Z M12,0 L5.99,6.01 C3.46,8.54 3.46,12.47 5.99,15 C7.26,16.27 8.94,17 10.75,17 C11.73,17 12.68,16.78 13.55,16.37 C14.42,16.78 15.37,17 16.35,17 C18.16,17 19.84,16.27 21.11,15 C23.64,12.47 23.64,8.54 21.11,6.01 L15.1,0 L12,3.1 L8.9,0 L12,0 Z" fill="#FFFFFF" fill-rule="nonzero"></path>
    </g>
</svg> 