<svg width="17" height="17" viewBox="0 0 17 17" fill="none" xmlns="http://www.w3.org/2000/svg">
<path fill-rule="evenodd" clip-rule="evenodd" d="M2.30209 15.5833C2.30209 15.2899 2.53993 15.0521 2.83334 15.0521H14.1667C14.4601 15.0521 14.6979 15.2899 14.6979 15.5833C14.6979 15.8767 14.4601 16.1146 14.1667 16.1146H2.83334C2.53993 16.1146 2.30209 15.8767 2.30209 15.5833Z" fill="#EF5A20"/>
<path d="M8.16005 10.5747L8.16006 10.5747L12.351 6.38369C11.7807 6.14628 11.1051 5.75632 10.4661 5.11739C9.82711 4.47836 9.43713 3.80267 9.19974 3.23222L5.00867 7.42328L5.00865 7.4233C4.68161 7.75034 4.51808 7.91388 4.37744 8.09418C4.21155 8.30688 4.06931 8.53701 3.95326 8.78052C3.85488 8.98695 3.78175 9.20634 3.63549 9.64514L2.86419 11.959C2.79221 12.175 2.84841 12.413 3.00936 12.574C3.17031 12.7349 3.40838 12.7911 3.62431 12.7192L5.9382 11.9479C6.37699 11.8016 6.5964 11.7285 6.80282 11.6301C7.04633 11.514 7.27647 11.3718 7.48916 11.2059C7.66947 11.0653 7.83301 10.9017 8.16005 10.5747Z" fill="#EF5A20"/>
<path d="M13.514 5.22074C14.3842 4.3505 14.3842 2.93958 13.514 2.06935C12.6438 1.19911 11.2328 1.19911 10.3626 2.06935L9.85995 2.572C9.86683 2.59279 9.87397 2.61386 9.88138 2.63521C10.0656 3.16625 10.4132 3.86241 11.0672 4.51635C11.7211 5.17029 12.4173 5.51791 12.9483 5.70215C12.9696 5.70953 12.9906 5.71663 13.0112 5.72349L13.514 5.22074Z" fill="#EF5A20"/>
</svg>
