<svg width="21" height="20" viewBox="0 0 21 20" fill="none" xmlns="http://www.w3.org/2000/svg">
<path fill-rule="evenodd" clip-rule="evenodd" d="M3.32684 4.45184C2.37494 5.40374 2.37494 6.93581 2.37494 9.99994C2.37494 13.0641 2.37494 14.5961 3.32684 15.548C4.27874 16.4999 5.81081 16.4999 8.87494 16.4999H12.1249C15.1891 16.4999 16.7211 16.4999 17.673 15.548C18.6249 14.5961 18.6249 13.0641 18.6249 9.99994C18.6249 6.93581 18.6249 5.40374 17.673 4.45184C16.7211 3.49994 15.1891 3.49994 12.1249 3.49994H8.87494C5.81081 3.49994 4.27874 3.49994 3.32684 4.45184ZM15.8431 6.35983C16.0585 6.61837 16.0236 7.00262 15.765 7.21807L13.9804 8.70527C13.2602 9.30544 12.6765 9.79187 12.1614 10.1232C11.6247 10.4684 11.1021 10.6864 10.4999 10.6864C9.89781 10.6864 9.37517 10.4684 8.83852 10.1232C8.32335 9.79187 7.73964 9.30544 7.01948 8.70528L5.23483 7.21807C4.97628 7.00262 4.94135 6.61837 5.1568 6.35983C5.37226 6.10128 5.75651 6.06635 6.01505 6.2818L7.76915 7.74356C8.52718 8.37525 9.05347 8.8124 9.49779 9.09817C9.92789 9.37479 10.2196 9.46765 10.4999 9.46765C10.7803 9.46765 11.072 9.37479 11.5021 9.09817C11.9464 8.8124 12.4727 8.37525 13.2307 7.74356L14.9848 6.2818C15.2434 6.06635 15.6276 6.10128 15.8431 6.35983Z" fill="#9B1AD6"/>
</svg>
