<svg width="19" height="20" viewBox="0 0 19 20" fill="none" xmlns="http://www.w3.org/2000/svg">
<path fill-rule="evenodd" clip-rule="evenodd" d="M8.03162 0.145813H9.96838C11.653 0.145799 12.9873 0.145787 14.0316 0.286187C15.1063 0.430679 15.9762 0.73512 16.6622 1.42112C16.9307 1.68961 16.9307 2.12491 16.6622 2.39339C16.3937 2.66188 15.9584 2.66188 15.6899 2.39339C15.302 2.00545 14.7706 1.77292 13.8484 1.64893C12.9064 1.52227 11.6646 1.52081 9.91667 1.52081H8.08333C6.33541 1.52081 5.09364 1.52227 4.15161 1.64893C3.22936 1.77292 2.69802 2.00545 2.31008 2.39339C1.92214 2.78133 1.68961 3.31268 1.56561 4.23492C1.43896 5.17695 1.4375 6.41873 1.4375 8.16665V11.8333C1.4375 13.5812 1.43896 14.823 1.56561 15.765C1.68961 16.6873 1.92214 17.2186 2.31008 17.6066C2.69802 17.9945 3.22936 18.227 4.15161 18.351C5.09364 18.4777 6.33541 18.4791 8.08333 18.4791H9.91667C11.6646 18.4791 12.9064 18.4777 13.8484 18.351C14.7706 18.227 15.302 17.9945 15.6899 17.6066C16.3279 16.9686 16.521 15.9774 16.5546 13.6567C16.5601 13.277 16.8723 12.9737 17.252 12.9792C17.6316 12.9847 17.935 13.2969 17.9295 13.6766C17.8973 15.9018 17.7532 17.4878 16.6622 18.5788C15.9762 19.2648 15.1063 19.5693 14.0316 19.7138C12.9873 19.8542 11.653 19.8542 9.96838 19.8541H8.03162C6.34701 19.8542 5.01268 19.8542 3.9684 19.7138C2.89368 19.5693 2.02381 19.2648 1.33781 18.5788C0.651807 17.8928 0.347366 17.023 0.202874 15.9483C0.0624742 14.904 0.0624858 13.5696 0.0625003 11.885V8.11493C0.0624858 6.43032 0.0624742 5.09599 0.202874 4.05171C0.347366 2.97699 0.651807 2.10712 1.33781 1.42112C2.02381 0.73512 2.89368 0.430679 3.9684 0.286187C5.01268 0.145787 6.347 0.145799 8.03162 0.145813ZM14.6037 5.45841C15.5761 4.48606 17.1526 4.48606 18.1249 5.45841C19.0973 6.43076 19.0973 8.00725 18.1249 8.9796L13.7659 13.3386C13.5287 13.5759 13.3683 13.7363 13.1886 13.8765C12.9772 14.0414 12.7484 14.1828 12.5064 14.2981C12.3007 14.3962 12.0854 14.4679 11.7672 14.5739L9.85717 15.2106C9.43547 15.3511 8.97055 15.2414 8.65624 14.9271C8.34192 14.6128 8.23217 14.1478 8.37274 13.7261L8.99658 11.8546C9.0009 11.8416 9.00517 11.8288 9.00938 11.8162C9.11542 11.498 9.18715 11.2827 9.2852 11.0769C9.40055 10.8349 9.54192 10.6062 9.70681 10.3947C9.84697 10.215 10.0074 10.0546 10.2446 9.81749C10.2541 9.80805 10.2636 9.79849 10.2733 9.7888L14.6037 5.45841ZM17.1526 6.43068C16.7173 5.9953 16.0114 5.9953 15.576 6.43068L15.4094 6.59732C15.4184 6.62801 15.4288 6.66065 15.4407 6.69496C15.5269 6.94349 15.6905 7.27223 16.0008 7.58251C16.3111 7.89279 16.6398 8.05642 16.8884 8.14265C16.9227 8.15455 16.9553 8.16492 16.986 8.17396L17.1526 8.00733C17.588 7.57195 17.588 6.86606 17.1526 6.43068ZM15.9359 9.22407C15.6445 9.07101 15.3299 8.85611 15.0285 8.55478C14.7272 8.25345 14.5123 7.93882 14.3592 7.64742L11.2456 10.7611C10.9696 11.0371 10.8728 11.1356 10.791 11.2404C10.6875 11.3731 10.5988 11.5166 10.5264 11.6685C10.4693 11.7885 10.4244 11.9192 10.301 12.2894L9.93408 13.3902L10.1931 13.6492L11.2939 13.2823C11.6642 13.1589 11.7948 13.1141 11.9148 13.0569C12.0667 12.9845 12.2103 12.8958 12.3429 12.7923C12.4477 12.7105 12.5463 12.6137 12.8222 12.3377L15.9359 9.22407ZM4.64583 7.24998C4.64583 6.87028 4.95364 6.56248 5.33333 6.56248H11.2917C11.6714 6.56248 11.9792 6.87028 11.9792 7.24998C11.9792 7.62968 11.6714 7.93748 11.2917 7.93748H5.33333C4.95364 7.93748 4.64583 7.62968 4.64583 7.24998ZM4.64583 10.9166C4.64583 10.537 4.95364 10.2291 5.33333 10.2291H7.625C8.0047 10.2291 8.3125 10.537 8.3125 10.9166C8.3125 11.2963 8.0047 11.6041 7.625 11.6041H5.33333C4.95364 11.6041 4.64583 11.2963 4.64583 10.9166ZM4.64583 14.5833C4.64583 14.2036 4.95364 13.8958 5.33333 13.8958H6.70833C7.08803 13.8958 7.39583 14.2036 7.39583 14.5833C7.39583 14.963 7.08803 15.2708 6.70833 15.2708H5.33333C4.95364 15.2708 4.64583 14.963 4.64583 14.5833Z" fill="#1C274C"/>
</svg>
