<svg width="22" height="22" viewBox="0 0 22 22" fill="none" xmlns="http://www.w3.org/2000/svg">
<path d="M2.63843 9.23294C2.63843 8.23536 2.63843 7.73656 2.92981 7.41218C2.95696 7.38195 2.98571 7.3532 3.01594 7.32605C3.34032 7.03467 3.83912 7.03467 4.8367 7.03467H16.2677C17.2653 7.03467 17.7641 7.03467 18.0885 7.32605C18.1187 7.3532 18.1475 7.38195 18.1746 7.41218C18.466 7.73656 18.466 8.23536 18.466 9.23294V10.1123C18.466 10.2804 18.466 10.3645 18.4571 10.4351C18.3923 10.9511 17.9859 11.3575 17.4699 11.4223C17.3993 11.4312 17.3152 11.4312 17.147 11.4312V11.4312C16.9789 11.4312 16.8948 11.4312 16.8242 11.4401C16.3082 11.5049 15.9018 11.9113 15.837 12.4273C15.8281 12.498 15.8281 12.582 15.8281 12.7502V15.3105C15.8281 16.3834 15.8281 16.9198 15.4948 17.2531C15.1615 17.5864 14.6251 17.5864 13.5522 17.5864H7.55222C6.47937 17.5864 5.94294 17.5864 5.60965 17.2531C5.27636 16.9198 5.27636 16.3834 5.27636 15.3105V12.7502C5.27636 12.582 5.27636 12.498 5.26749 12.4273C5.20267 11.9113 4.79626 11.5049 4.28024 11.4401C4.20961 11.4312 4.12554 11.4312 3.95739 11.4312V11.4312C3.78925 11.4312 3.70517 11.4312 3.63454 11.4223C3.11853 11.3575 2.71211 10.9511 2.6473 10.4351C2.63843 10.3645 2.63843 10.2804 2.63843 10.1123V9.23294Z" stroke="#F07D11" stroke-width="1.13793"/>
<path d="M4.39697 11.4312H16.7073" stroke="#F07D11" stroke-width="1.13793" stroke-linecap="round"/>
<path d="M10.5522 6.15527L10.5522 17.5863" stroke="#F07D11" stroke-width="1.13793" stroke-linecap="round"/>
<path d="M10.5521 6.15494L9.77962 5.38241C8.84201 4.4448 7.69896 3.73836 6.44102 3.31904V3.31904C5.43543 2.98385 4.39697 3.73233 4.39697 4.79231V4.95244C4.39697 5.67056 4.85649 6.30811 5.53776 6.5352L7.0349 7.03425" stroke="#F07D11" stroke-width="1.13793" stroke-linecap="round"/>
<path d="M10.5521 6.15494L11.3246 5.38241C12.2622 4.4448 13.4053 3.73836 14.6632 3.31904V3.31904C15.6688 2.98385 16.7073 3.73233 16.7073 4.79231V4.95244C16.7073 5.67056 16.2478 6.30811 15.5665 6.5352L14.0693 7.03425" stroke="#F07D11" stroke-width="1.13793" stroke-linecap="round"/>
</svg>
