<?xml version="1.0" encoding="UTF-8"?>
<svg width="24px" height="24px" viewBox="0 0 24 24" version="1.1" xmlns="http://www.w3.org/2000/svg" xmlns:xlink="http://www.w3.org/1999/xlink">
    <g stroke="none" stroke-width="1" fill="none" fill-rule="evenodd">
        <path d="M12,21C11.45,21 10.95,20.76 10.59,20.41C7.5,17.27 2,12.55 2,8.5C2,5.41 4.42,3 7.5,3C9.25,3 10.81,3.81 12,5.09C13.19,3.81 14.75,3 16.5,3C19.58,3 22,5.41 22,8.5C22,12.55 16.5,17.27 13.41,20.41C13.05,20.76 12.55,21 12,21Z" fill="#FFFFFF" fill-rule="nonzero"/>
        <path d="M7,10H9L10,7L12,13L14,10L16,13L17,10H19" stroke="#FFFFFF" stroke-width="1.5" stroke-linecap="round" stroke-linejoin="round"/>
    </g>
</svg> 