<?xml version="1.0" encoding="UTF-8"?>
<svg width="24px" height="24px" viewBox="0 0 24 24" version="1.1" xmlns="http://www.w3.org/2000/svg" xmlns:xlink="http://www.w3.org/1999/xlink">
    <g stroke="none" stroke-width="1" fill="none" fill-rule="evenodd">
        <path d="M16.5,3C19.58,3 22,5.41 22,8.5C22,12.27 18.6,15.36 13.45,20.03L12,21.35L10.55,20.03C5.4,15.36 2,12.27 2,8.5C2,5.41 4.42,3 7.5,3C9.24,3 10.91,3.81 12,5.08C13.09,3.81 14.76,3 16.5,3ZM16.5,5C15.3,5 14.11,5.65 13.44,6.61L12,8.57L10.56,6.61C9.89,5.65 8.7,5 7.5,5C5.5,5 4,6.5 4,8.5C4,11.39 7.14,14.24 12,18.65C16.86,14.24 20,11.39 20,8.5C20,6.5 18.5,5 16.5,5Z" fill="#000000" fill-rule="nonzero"></path>
    </g>
</svg>
