<svg width="20" height="18" viewBox="0 0 20 18" fill="none" xmlns="http://www.w3.org/2000/svg">
<path fill-rule="evenodd" clip-rule="evenodd" d="M4.15534 2.53126C2.63459 3.22639 1.52051 4.87979 1.52051 6.85142C1.52051 8.86571 2.34479 10.4183 3.52644 11.7489C4.50034 12.8455 5.67927 13.7544 6.82904 14.6408C7.10212 14.8513 7.37356 15.0606 7.64022 15.2708C8.12241 15.6509 8.55255 15.9846 8.96715 16.2268C9.38197 16.4692 9.71587 16.5799 9.99967 16.5799C10.2835 16.5799 10.6174 16.4692 11.0322 16.2268C11.4468 15.9846 11.8769 15.6509 12.3591 15.2708C12.6258 15.0606 12.8972 14.8513 13.1703 14.6408C14.3201 13.7544 15.499 12.8455 16.4729 11.7489C17.6546 10.4183 18.4788 8.86571 18.4788 6.85142C18.4788 4.87979 17.3648 3.22639 15.844 2.53126C14.3666 1.85594 12.3815 2.03478 10.495 3.99476C10.3654 4.12941 10.1866 4.2055 9.99967 4.2055C9.81278 4.2055 9.63394 4.12941 9.50434 3.99476C7.61786 2.03478 5.63274 1.85594 4.15534 2.53126ZM9.99968 2.563C7.88029 0.666803 5.50706 0.401546 3.58371 1.28071C1.55233 2.20926 0.145508 4.36536 0.145508 6.85142C0.145508 9.29483 1.16346 11.1588 2.49833 12.6619C3.56731 13.8656 4.87571 14.873 6.03126 15.7628C6.29321 15.9645 6.54731 16.1601 6.78897 16.3506C7.25852 16.7208 7.76259 17.1155 8.27343 17.414C8.78404 17.7124 9.36681 17.9549 9.99967 17.9549C10.6325 17.9549 11.2153 17.7124 11.7259 17.414C12.2368 17.1155 12.7408 16.7208 13.2104 16.3506C13.452 16.1601 13.7061 15.9645 13.9681 15.7628C15.1236 14.873 16.432 13.8656 17.501 12.6619C18.8359 11.1588 19.8538 9.29483 19.8538 6.85142C19.8538 4.36536 18.447 2.20926 16.4156 1.28071C14.4923 0.401546 12.1191 0.666803 9.99968 2.563Z" fill="#434343"/>
</svg>
