<svg width="16" height="16" viewBox="0 0 16 16" fill="none" xmlns="http://www.w3.org/2000/svg">
<path fill-rule="evenodd" clip-rule="evenodd" d="M9.09279 1.94839C5.98336 1.27133 3.23999 3.61393 3.23999 6.60002C3.23999 8.31066 4.37654 9.97004 5.79194 10.8254C5.94177 10.916 6.03332 11.0783 6.03332 11.2534V12.0267C6.03332 12.0712 6.03207 12.1156 6.03108 12.1506C6.03103 12.1525 6.03097 12.1543 6.03092 12.1562C6.06781 12.159 6.11326 12.1605 6.16878 12.16L6.17332 12.16V12.16H9.84666C9.91403 12.16 9.95965 12.1544 9.98871 12.1486C9.98886 12.1385 9.98879 12.1268 9.98851 12.113C9.98825 12.0997 9.9879 12.0884 9.98748 12.0721C9.9871 12.0578 9.98666 12.0391 9.98666 12.02V11.2467C9.98666 11.0715 10.0783 10.9092 10.2282 10.8186C12.2145 9.61954 13.5161 6.90888 12.2657 4.39611L12.2657 4.3961C11.6491 3.15704 10.4577 2.25061 9.09279 1.94839ZM6.03168 12.2813C6.03167 12.2813 6.03158 12.2808 6.03143 12.2797L6.03168 12.2813ZM2.23999 6.60002C2.23999 2.98636 5.56284 0.155759 9.30644 0.971485L9.308 0.971824C10.9561 1.33645 12.4043 2.42991 13.161 3.95061C14.6433 6.92952 13.1761 10.047 10.9867 11.5206V12.02C10.9867 12.0207 10.9868 12.0227 10.987 12.0259C10.9903 12.0733 11.0122 12.3854 10.8775 12.6437C10.6884 13.0064 10.308 13.16 9.84666 13.16H6.17554C5.80174 13.1632 5.36945 13.1056 5.14848 12.7338C5.05013 12.5682 5.03424 12.3986 5.03051 12.2933C5.02855 12.2381 5.0298 12.1841 5.03093 12.1422C5.03115 12.134 5.03136 12.1262 5.03157 12.1187C5.03254 12.0839 5.03332 12.0559 5.03332 12.0267V11.5273C3.4908 10.4909 2.23999 8.62473 2.23999 6.60002Z" fill="#E8B50E"/>
<path fill-rule="evenodd" clip-rule="evenodd" d="M10.1968 15.1477C8.75936 14.7397 7.24057 14.7397 5.80316 15.1477C5.53751 15.2231 5.26104 15.0689 5.18563 14.8032C5.11023 14.5376 5.26446 14.2611 5.5301 14.1857C7.14603 13.727 8.8539 13.727 10.4698 14.1857C10.7355 14.2611 10.8897 14.5376 10.8143 14.8032C10.7389 15.0689 10.4624 15.2231 10.1968 15.1477Z" fill="#E8B50E"/>
</svg>
