<svg width="24" height="24" viewBox="0 0 24 24" fill="none" xmlns="http://www.w3.org/2000/svg">
<g clip-path="url(#clip0_249_1043)">
<path d="M11.03 2.58997C11.301 2.36023 11.6447 2.23413 12 2.23413C12.3553 2.23413 12.699 2.36023 12.97 2.58997L20.47 8.95297C20.6361 9.09377 20.7695 9.26903 20.861 9.46658C20.9526 9.66414 21 9.87925 21 10.097V19.5C21 19.8978 20.842 20.2793 20.5607 20.5606C20.2794 20.8419 19.8978 21 19.5 21H13.75C13.5511 21 13.3603 20.921 13.2197 20.7803C13.079 20.6397 13 20.4489 13 20.25V14H11V20.25C11 20.4489 10.921 20.6397 10.7803 20.7803C10.6397 20.921 10.4489 21 10.25 21H4.5C4.10218 21 3.72064 20.8419 3.43934 20.5606C3.15804 20.2793 3 19.8978 3 19.5V10.097C3 9.65697 3.194 9.23797 3.53 8.95297L11.03 2.58997ZM12 3.73397L4.5 10.097V19.5H9.5V13.25C9.5 13.0511 9.57902 12.8603 9.71967 12.7196C9.86032 12.579 10.0511 12.5 10.25 12.5H13.75C13.9489 12.5 14.1397 12.579 14.2803 12.7196C14.421 12.8603 14.5 13.0511 14.5 13.25V19.5H19.5V10.097L12 3.73397Z" fill="#471D6F"/>
</g>
<defs>
<clipPath id="clip0_249_1043">
<rect width="24" height="24" fill="white"/>
</clipPath>
</defs>
</svg>
