<svg width="20" height="20" viewBox="0 0 20 20" fill="none" xmlns="http://www.w3.org/2000/svg">
<path d="M7.25004 13.6667C7.25004 14.1729 6.83964 14.5833 6.33338 14.5833C5.82711 14.5833 5.41671 14.1729 5.41671 13.6667C5.41671 13.1604 5.82711 12.75 6.33338 12.75C6.83964 12.75 7.25004 13.1604 7.25004 13.6667Z" fill="#1C274C"/>
<path d="M10.9167 13.6667C10.9167 14.1729 10.5063 14.5833 10 14.5833C9.49378 14.5833 9.08338 14.1729 9.08338 13.6667C9.08338 13.1604 9.49378 12.75 10 12.75C10.5063 12.75 10.9167 13.1604 10.9167 13.6667Z" fill="#1C274C"/>
<path d="M13.6667 14.5833C14.173 14.5833 14.5834 14.1729 14.5834 13.6667C14.5834 13.1604 14.173 12.75 13.6667 12.75C13.1604 12.75 12.75 13.1604 12.75 13.6667C12.75 14.1729 13.1604 14.5833 13.6667 14.5833Z" fill="#1C274C"/>
<path fill-rule="evenodd" clip-rule="evenodd" d="M3.81254 6.33334V7.52755C3.60461 7.54217 3.40864 7.5612 3.22427 7.58599C2.39917 7.69692 1.70445 7.93424 1.1527 8.486C0.600939 9.03775 0.36362 9.73247 0.252688 10.5576C0.145841 11.3523 0.145856 12.3627 0.145875 13.6164V13.717C0.145856 14.9706 0.145841 15.9811 0.252688 16.7758C0.36362 17.6009 0.600939 18.2956 1.1527 18.8474C1.70445 19.3991 2.39917 19.6364 3.22427 19.7474C4.01899 19.8542 5.02945 19.8542 6.28308 19.8542H13.717C14.9706 19.8542 15.9811 19.8542 16.7758 19.7474C17.6009 19.6364 18.2956 19.3991 18.8474 18.8474C19.3991 18.2956 19.6365 17.6009 19.7474 16.7758C19.8542 15.9811 19.8542 14.9706 19.8542 13.717V13.6164C19.8542 12.3628 19.8542 11.3523 19.7474 10.5576C19.6365 9.73247 19.3991 9.03775 18.8474 8.486C18.2956 7.93424 17.6009 7.69692 16.7758 7.58599C16.5914 7.5612 16.3955 7.54217 16.1875 7.52755V6.33334C16.1875 2.91608 13.4173 0.145844 10 0.145844C6.58278 0.145844 3.81254 2.91608 3.81254 6.33334ZM10 1.52084C7.34217 1.52084 5.18754 3.67547 5.18754 6.33334V7.48233C5.52991 7.47917 5.89477 7.47917 6.28295 7.47918H13.717C14.1052 7.47917 14.4702 7.47917 14.8125 7.48233V6.33334C14.8125 3.67547 12.6579 1.52084 10 1.52084ZM3.40749 8.94873C2.73486 9.03916 2.37867 9.20457 2.12497 9.45827C1.87127 9.71197 1.70586 10.0682 1.61543 10.7408C1.52234 11.4332 1.52088 12.3509 1.52088 13.6667C1.52088 14.9825 1.52234 15.9002 1.61543 16.5926C1.70586 17.2652 1.87127 17.6214 2.12497 17.8751C2.37867 18.1288 2.73486 18.2942 3.40749 18.3846C4.09989 18.4777 5.01758 18.4792 6.33338 18.4792H13.6667C14.9825 18.4792 15.9002 18.4777 16.5926 18.3846C17.2652 18.2942 17.6214 18.1288 17.8751 17.8751C18.1288 17.6214 18.2942 17.2652 18.3847 16.5926C18.4777 15.9002 18.4792 14.9825 18.4792 13.6667C18.4792 12.3509 18.4777 11.4332 18.3847 10.7408C18.2942 10.0682 18.1288 9.71197 17.8751 9.45827C17.6214 9.20457 17.2652 9.03916 16.5926 8.94873C15.9002 8.85564 14.9825 8.85418 13.6667 8.85418H6.33338C5.01758 8.85418 4.09989 8.85564 3.40749 8.94873Z" fill="#1C274C"/>
</svg>
