<svg width="34" height="34" viewBox="0 0 34 34" fill="none" xmlns="http://www.w3.org/2000/svg">
<circle cx="17" cy="17" r="17" fill="#FEEBDB"/>
<path d="M24.6207 17.5862V20.3414C24.6207 22.7732 24.6207 23.9891 23.8653 24.7445C23.1098 25.5 21.8939 25.5 19.4621 25.5H12.75C11.536 25.5 10.5518 24.5158 10.5518 23.3017V23.3017C10.5518 22.0877 11.536 21.1035 12.75 21.1035H19.4621C21.8939 21.1035 23.1098 21.1035 23.8653 20.348C24.6207 19.5925 24.6207 18.3766 24.6207 15.9448V14.831C24.6207 12.3992 24.6207 11.1833 23.8653 10.4279C23.1098 9.67242 21.8939 9.67242 19.4621 9.67242H15.7104C13.2786 9.67242 12.0627 9.67242 11.3072 10.4279C10.5518 11.1833 10.5518 12.3992 10.5518 14.831V23.3017" stroke="#FB9A4D" stroke-width="1.28966"/>
<path d="M14.9482 15.8276L15.7949 16.6743C16.2986 17.1779 17.1151 17.1779 17.6188 16.6743L20.2241 14.069" stroke="#FB9A4D" stroke-width="1.28966" stroke-linecap="round"/>
</svg>
