<svg width="18" height="20" viewBox="0 0 18 20" fill="none" xmlns="http://www.w3.org/2000/svg">
<path fill-rule="evenodd" clip-rule="evenodd" d="M4.65739 1.98873C4.76701 0.952881 5.64342 0.145813 6.70833 0.145813H11.2917C12.3566 0.145813 13.233 0.952881 13.3426 1.98873C14.0421 2.00297 14.6469 2.03915 15.1633 2.13401C15.8582 2.26164 16.4495 2.50478 16.9307 2.98597C17.4824 3.53772 17.7198 4.23244 17.8307 5.05754C17.9375 5.85226 17.9375 6.86272 17.9375 8.11635V13.7169C17.9375 14.9706 17.9375 15.981 17.8307 16.7758C17.7198 17.6009 17.4824 18.2956 16.9307 18.8473C16.3789 19.3991 15.6842 19.6364 14.8591 19.7473C14.0644 19.8542 13.0539 19.8542 11.8003 19.8541H6.1997C4.94608 19.8542 3.93562 19.8542 3.1409 19.7473C2.3158 19.6364 1.62108 19.3991 1.06932 18.8473C0.517565 18.2956 0.280245 17.6009 0.169314 16.7758C0.0624664 15.981 0.0624816 14.9706 0.0625005 13.7169V8.11634C0.0624816 6.86272 0.0624664 5.85226 0.169314 5.05754C0.280245 4.23244 0.517565 3.53772 1.06932 2.98597C1.55051 2.50478 2.14183 2.26164 2.83666 2.13401C3.35308 2.03915 3.95789 2.00297 4.65739 1.98873ZM4.65955 3.36411C4.00122 3.37817 3.49391 3.41129 3.08507 3.48639C2.56549 3.58183 2.26476 3.73507 2.04159 3.95824C1.78789 4.21194 1.62249 4.56813 1.53205 5.24076C1.43896 5.93316 1.4375 6.85085 1.4375 8.16665V13.6666C1.4375 14.9824 1.43896 15.9001 1.53205 16.5925C1.62249 17.2652 1.78789 17.6214 2.04159 17.8751C2.29529 18.1288 2.65148 18.2942 3.32411 18.3846C4.01652 18.4777 4.9342 18.4791 6.25 18.4791H11.75C13.0658 18.4791 13.9835 18.4777 14.6759 18.3846C15.3485 18.2942 15.7047 18.1288 15.9584 17.8751C16.2121 17.6214 16.3775 17.2652 16.468 16.5925C16.561 15.9001 16.5625 14.9824 16.5625 13.6666V8.16665C16.5625 6.85085 16.561 5.93316 16.468 5.24076C16.3775 4.56813 16.2121 4.21194 15.9584 3.95824C15.7352 3.73507 15.4345 3.58183 14.9149 3.48639C14.5061 3.41129 13.9988 3.37817 13.3405 3.36411C13.2219 4.39054 12.3499 5.18748 11.2917 5.18748H6.70833C5.65013 5.18748 4.77806 4.39054 4.65955 3.36411ZM6.70833 1.52081C6.32864 1.52081 6.02083 1.82862 6.02083 2.20831V3.12498C6.02083 3.50468 6.32864 3.81248 6.70833 3.81248H11.2917C11.6714 3.81248 11.9792 3.50468 11.9792 3.12498V2.20831C11.9792 1.82862 11.6714 1.52081 11.2917 1.52081H6.70833ZM3.72917 8.62498C3.72917 8.24528 4.03697 7.93748 4.41667 7.93748H13.5833C13.963 7.93748 14.2708 8.24528 14.2708 8.62498C14.2708 9.00467 13.963 9.31248 13.5833 9.31248H4.41667C4.03697 9.31248 3.72917 9.00467 3.72917 8.62498ZM4.64583 11.8333C4.64583 11.4536 4.95364 11.1458 5.33333 11.1458H12.6667C13.0464 11.1458 13.3542 11.4536 13.3542 11.8333C13.3542 12.213 13.0464 12.5208 12.6667 12.5208H5.33333C4.95364 12.5208 4.64583 12.213 4.64583 11.8333ZM5.5625 15.0416C5.5625 14.662 5.87031 14.3541 6.25 14.3541H11.75C12.1297 14.3541 12.4375 14.662 12.4375 15.0416C12.4375 15.4213 12.1297 15.7291 11.75 15.7291H6.25C5.87031 15.7291 5.5625 15.4213 5.5625 15.0416Z" fill="#1C274C"/>
</svg>
