<svg width="22" height="22" viewBox="0 0 22 22" fill="none" xmlns="http://www.w3.org/2000/svg">
<rect width="22" height="22" rx="5" transform="matrix(-1 0 0 1 22 0)" fill="#FCE2B6"/>
<g clip-path="url(#clip0_13_2890)">
<path d="M5.89988 6.02826L8.13426 5.51263C8.37703 5.45678 8.62625 5.58353 8.72508 5.81127L9.75633 8.21752C9.84656 8.42806 9.78641 8.67513 9.60809 8.81908L8.30613 9.8847C9.07957 11.5326 10.4309 12.9033 12.1132 13.6917L13.1788 12.3898C13.3249 12.2115 13.5698 12.1513 13.7804 12.2415L16.1866 13.2728C16.4165 13.3738 16.5432 13.623 16.4874 13.8658L15.9718 16.1001C15.9181 16.3322 15.7118 16.4997 15.469 16.4997C9.96687 16.4997 5.50027 12.0417 5.50027 6.53099C5.50027 6.29037 5.6657 6.08197 5.89988 6.02826Z" fill="#F89300"/>
</g>
<defs>
<clipPath id="clip0_13_2890">
<rect width="11" height="11" fill="white" transform="matrix(-1 0 0 1 16.5 5.5)"/>
</clipPath>
</defs>
</svg>
