<svg width="17" height="18" viewBox="0 0 17 18" fill="none" xmlns="http://www.w3.org/2000/svg">
<g clip-path="url(#clip0_13_2877)">
<path d="M15.9938 5.90628C15.8563 5.73752 15.6501 5.62503 15.3751 5.62503H9.1876V1.12502C9.1876 0.900025 8.98135 0.675025 8.70635 0.562525C8.43135 0.506275 8.0876 0.562525 7.9501 0.787525L1.0751 8.66253C0.937596 8.83127 0.868846 9.05628 1.00635 9.22503C1.14385 9.45003 1.3501 9.56253 1.6251 9.56253H7.6751L6.4376 16.8188C6.36885 17.1 6.5751 17.325 6.8501 17.4375C6.91885 17.4375 6.9876 17.4938 7.05635 17.4938C7.2626 17.4938 7.5376 17.3813 7.60635 17.2125L15.8563 6.52503C16.0626 6.30003 16.0626 6.07503 15.9938 5.90628Z" fill="#EF5A20"/>
</g>
<defs>
<clipPath id="clip0_13_2877">
<rect width="17" height="18" fill="white"/>
</clipPath>
</defs>
</svg>
