<svg width="16" height="19" viewBox="0 0 16 19" fill="none" xmlns="http://www.w3.org/2000/svg">
<path fill-rule="evenodd" clip-rule="evenodd" d="M8.00004 0.145844C5.5953 0.145844 3.64587 2.09527 3.64587 4.50001C3.64587 6.90475 5.5953 8.85418 8.00004 8.85418C10.4048 8.85418 12.3542 6.90475 12.3542 4.50001C12.3542 2.09527 10.4048 0.145844 8.00004 0.145844ZM5.02087 4.50001C5.02087 2.85466 6.35469 1.52084 8.00004 1.52084C9.64539 1.52084 10.9792 2.85466 10.9792 4.50001C10.9792 6.14536 9.64539 7.47918 8.00004 7.47918C6.35469 7.47918 5.02087 6.14536 5.02087 4.50001Z" fill="#1C274C"/>
<path fill-rule="evenodd" clip-rule="evenodd" d="M8.00004 10.2292C6.13065 10.2292 4.40443 10.6607 3.12168 11.3937C1.85837 12.1156 0.895874 13.2176 0.895874 14.5833C0.895874 15.9491 1.85837 17.0511 3.12168 17.773C4.40443 18.506 6.13065 18.9375 8.00004 18.9375C9.86943 18.9375 11.5956 18.506 12.8784 17.773C14.1417 17.0511 15.1042 15.9491 15.1042 14.5833C15.1042 13.2176 14.1417 12.1156 12.8784 11.3937C11.5956 10.6607 9.86943 10.2292 8.00004 10.2292ZM2.27087 14.5833C2.27087 13.924 2.7448 13.1927 3.80387 12.5875C4.84349 11.9935 6.3256 11.6042 8.00004 11.6042C9.67448 11.6042 11.1566 11.9935 12.1962 12.5875C13.2553 13.1927 13.7292 13.924 13.7292 14.5833C13.7292 15.2427 13.2553 15.974 12.1962 16.5791C11.1566 17.1732 9.67448 17.5625 8.00004 17.5625C6.3256 17.5625 4.84349 17.1732 3.80387 16.5791C2.7448 15.974 2.27087 15.2427 2.27087 14.5833Z" fill="#1C274C"/>
</svg>
