<svg width="25" height="24" viewBox="0 0 25 24" fill="none" xmlns="http://www.w3.org/2000/svg">
<path d="M22.25 3.77344H16.8875C15.7367 3.77344 14.6117 4.10391 13.6437 4.72734L12.5 5.46094L11.3563 4.72734C10.3892 4.10403 9.26299 3.77282 8.1125 3.77344H2.75C2.33516 3.77344 2 4.10859 2 4.52344V17.8359C2 18.2508 2.33516 18.5859 2.75 18.5859H8.1125C9.26328 18.5859 10.3883 18.9164 11.3563 19.5398L12.3969 20.2102C12.4273 20.2289 12.4625 20.2406 12.4977 20.2406C12.5328 20.2406 12.568 20.2313 12.5984 20.2102L13.6391 19.5398C14.6094 18.9164 15.7367 18.5859 16.8875 18.5859H22.25C22.6648 18.5859 23 18.2508 23 17.8359V4.52344C23 4.10859 22.6648 3.77344 22.25 3.77344ZM8.1125 16.8984H3.6875V5.46094H8.1125C8.94219 5.46094 9.74844 5.69766 10.4445 6.14531L11.5883 6.87891L11.75 6.98438V17.8125C10.6344 17.2125 9.3875 16.8984 8.1125 16.8984ZM21.3125 16.8984H16.8875C15.6125 16.8984 14.3656 17.2125 13.25 17.8125V6.98438L13.4117 6.87891L14.5555 6.14531C15.2516 5.69766 16.0578 5.46094 16.8875 5.46094H21.3125V16.8984ZM9.80234 8.46094H5.44766C5.35625 8.46094 5.28125 8.54063 5.28125 8.63672V9.69141C5.28125 9.7875 5.35625 9.86719 5.44766 9.86719H9.8C9.89141 9.86719 9.96641 9.7875 9.96641 9.69141V8.63672C9.96875 8.54063 9.89375 8.46094 9.80234 8.46094ZM15.0312 8.63672V9.69141C15.0312 9.7875 15.1062 9.86719 15.1977 9.86719H19.55C19.6414 9.86719 19.7164 9.7875 19.7164 9.69141V8.63672C19.7164 8.54063 19.6414 8.46094 19.55 8.46094H15.1977C15.1062 8.46094 15.0312 8.54063 15.0312 8.63672ZM9.80234 11.7422H5.44766C5.35625 11.7422 5.28125 11.8219 5.28125 11.918V12.9727C5.28125 13.0688 5.35625 13.1484 5.44766 13.1484H9.8C9.89141 13.1484 9.96641 13.0688 9.96641 12.9727V11.918C9.96875 11.8219 9.89375 11.7422 9.80234 11.7422ZM19.5523 11.7422H15.1977C15.1062 11.7422 15.0312 11.8219 15.0312 11.918V12.9727C15.0312 13.0688 15.1062 13.1484 15.1977 13.1484H19.55C19.6414 13.1484 19.7164 13.0688 19.7164 12.9727V11.918C19.7188 11.8219 19.6438 11.7422 19.5523 11.7422Z" fill="#471D6F"/>
</svg>
