<svg width="30" height="30" viewBox="0 0 30 30" fill="none" xmlns="http://www.w3.org/2000/svg">
<circle cx="14.8429" cy="14.7025" r="14.3329" fill="#FEFCF8" stroke="#FFC700" stroke-width="0.68252"/>
<rect x="9.84863" y="7.52222" width="10.2259" height="14.3467" fill="#823FAB"/>
<rect x="9.84863" y="8.00854" width="10.2259" height="1.21583" fill="#905EAF"/>
<rect x="9.84863" y="20.167" width="10.2259" height="1.21583" fill="#905EAF"/>
<rect x="9.84863" y="17.2488" width="10.2259" height="1.21583" fill="#905EAF"/>
<rect x="9.84863" y="10.7305" width="10.2259" height="1.21583" fill="#905EAF"/>
<rect x="6.75732" y="7.52222" width="2.85374" height="7.53812" fill="#D28800"/>
<rect x="7.7085" y="14.8171" width="1.9025" height="6.32229" fill="#D28800"/>
<rect x="20.0745" y="7.52222" width="2.85374" height="7.53812" fill="#D28800"/>
<rect x="20.0745" y="14.8171" width="1.9025" height="6.32229" fill="#D28800"/>
<rect x="9.61133" y="14.0876" width="10.4637" height="1.45899" fill="#FBB603"/>
<mask id="mask0_175_4817" style="mask-type:alpha" maskUnits="userSpaceOnUse" x="6" y="6" width="18" height="16">
<path d="M22.7651 6.85352H20.3276C20.166 6.85352 20.0109 6.91914 19.8967 7.03603C19.7823 7.15286 19.7182 7.31136 19.7182 7.47663V8.09974H9.96788V7.47663C9.96788 7.31137 9.90371 7.15287 9.78939 7.03603C9.67513 6.91913 9.52012 6.85352 9.35849 6.85352H6.92092C6.7593 6.85352 6.60429 6.91914 6.49002 7.03603C6.37569 7.15286 6.31152 7.31136 6.31152 7.47663V14.954C6.31152 15.1192 6.3757 15.2777 6.49002 15.3946C6.60428 15.5115 6.75929 15.5771 6.92092 15.5771V21.1851C6.92092 21.3503 6.98509 21.5088 7.09941 21.6257C7.21367 21.7426 7.36868 21.8082 7.53031 21.8082H22.1557C22.3174 21.8082 22.4724 21.7426 22.5866 21.6257C22.701 21.5088 22.7651 21.3503 22.7651 21.1851V15.5771C22.9268 15.5771 23.0818 15.5114 23.196 15.3946C23.3104 15.2777 23.3745 15.1192 23.3745 14.954V7.47663C23.3745 7.31137 23.3104 7.15287 23.196 7.03603C23.0818 6.91913 22.9268 6.85352 22.7651 6.85352ZM20.937 8.09974H22.1557V14.3308H20.937V8.09974ZM19.7182 9.34596V14.3308H17.2806V13.7077C17.2806 13.3772 17.1522 13.0602 16.9236 12.8266C16.6951 12.5928 16.385 12.4615 16.0618 12.4615H13.6242C13.301 12.4615 12.991 12.5928 12.7625 12.8266C12.5339 13.0602 12.4055 13.3772 12.4055 13.7077V14.3308H9.96788V9.34596H19.7182ZM16.0618 16.2002H13.6242V13.7077H16.0618V16.2002ZM7.53031 8.09974H8.7491V14.3308H7.53031V8.09974ZM8.1397 15.5771H9.35849V20.562H8.1397V15.5771ZM10.5773 15.5771H12.4055V16.2002C12.4055 16.5307 12.5339 16.8477 12.7625 17.0814C12.991 17.3151 13.301 17.4464 13.6242 17.4464H14.2336V18.0695C14.2336 18.2921 14.3498 18.4978 14.5383 18.6092C14.7269 18.7205 14.9592 18.7205 15.1477 18.6092C15.3363 18.4978 15.4524 18.2922 15.4524 18.0695V17.4464H16.0618C16.3851 17.4464 16.6951 17.3151 16.9236 17.0814C17.1522 16.8477 17.2806 16.5307 17.2806 16.2002V15.5771H19.1088V20.562H10.5773V15.5771ZM21.5464 20.562H20.3276V15.5771H21.5464V20.562Z" fill="black"/>
</mask>
<g mask="url(#mask0_175_4817)">
<path fill-rule="evenodd" clip-rule="evenodd" d="M10.1003 2.17261H2.71411V15.5467H3.17604V27.705H10.5622V14.3309H10.1003V2.17261Z" fill="#FBB603"/>
<path fill-rule="evenodd" clip-rule="evenodd" d="M26.9714 2.17261H19.3615V15.5467H19.8374V27.705H27.4474V14.3309H26.9714V2.17261Z" fill="#FBB603"/>
</g>
<rect x="12.4648" y="12.3855" width="4.75624" height="5.10647" rx="2.37812" fill="#FBCF04"/>
<path d="M14.8432 13.6013C13.8069 13.6013 14.1235 14.5902 14.4114 15.0847C14.0659 16.1801 14.2675 16.3018 14.4114 16.2257C14.6993 16.2638 15.2966 16.317 15.383 16.2257C15.4693 16.1344 15.347 15.3509 15.275 14.9706C15.5629 14.5142 15.8795 13.6013 14.8432 13.6013Z" fill="#DB8E00"/>
</svg>
