<svg xmlns="http://www.w3.org/2000/svg"  viewBox="0 0 24 24" width="48px" height="48px"><path d="M19.166,5.011c-0.918-0.919-1.769-1.393-2.331-1.633c-2.149-1.693-6.399-0.105-10.048,3.804	c-1.684,1.804-2.944,3.821-3.547,5.681c-0.663,2.04-0.467,3.703,0.539,4.709c-0.003,0-0.007-0.001-0.01-0.001	c0.279,0.473,0.68,1.031,1.25,1.602c0.783,0.784,2.382,1.819,4.568,1.819c2.06,0,4.644-0.92,7.559-3.839	C23.209,11.086,20.679,6.525,19.166,5.011z M4.954,13.42c0.523-1.613,1.643-3.392,3.152-5.008c2.382-2.552,5.038-3.911,6.622-3.911	c0.456,0,0.823,0.113,1.069,0.342c0.513,0.479,0.559,1.567,0.121,2.911c-0.523,1.614-1.643,3.392-3.152,5.008	c-3.069,3.288-6.594,4.595-7.69,3.569C4.563,15.852,4.517,14.764,4.954,13.42z" opacity=".35"/><path d="M7.728,16.343c0.131-1.635,1.143-3.912,2.937-5.707c1.655-1.657,3.676-2.637,5.254-2.886 c0.436-1.342,0.39-2.429-0.123-2.907c-0.245-0.23-0.613-0.342-1.069-0.342c-1.584,0-4.24,1.359-6.622,3.911 c-1.509,1.616-2.628,3.395-3.152,5.008c-0.437,1.344-0.391,2.433,0.121,2.911C5.563,16.787,6.533,16.779,7.728,16.343z"/><path d="M3.755,17.545c0.006,0.01,0.009,0.017,0.014,0.027c0.003,0.001,0.007,0,0.01,0.001C3.77,17.564,3.763,17.554,3.755,17.545z"/></svg>