<svg width="20" height="20" viewBox="0 0 20 20" fill="none" xmlns="http://www.w3.org/2000/svg">
<path fill-rule="evenodd" clip-rule="evenodd" d="M17.8846 17.8234L14.9296 14.7698L14.8625 14.6598C14.7319 14.5207 14.5574 14.4461 14.3726 14.4461C14.1913 14.4461 14.0133 14.5207 13.8861 14.6598C11.3746 17.0952 7.50674 17.227 4.84394 14.9679C2.18114 12.7061 1.55368 8.75703 3.37673 5.73612C5.19978 2.71612 8.90691 1.56339 12.039 3.04067C15.172 4.51794 16.7595 8.16703 15.7461 11.5698C15.6757 11.8188 15.7324 12.0852 15.9034 12.2734C16.0719 12.4616 16.3272 12.5398 16.5687 12.4825C16.8102 12.4261 17.0053 12.237 17.0793 11.9925C18.2878 7.95521 16.4613 3.60885 12.7816 1.7643C9.10116 -0.0775147 4.66946 1.13703 2.35648 4.62339C0.0426399 8.11067 0.539445 12.8198 3.52801 15.7107C6.51228 18.5979 11.0927 18.7961 14.3021 16.1761L16.9177 18.8816C17.1867 19.1625 17.6225 19.1625 17.8949 18.8816C18.1631 18.6007 18.1631 18.1461 17.8949 17.8625L17.8846 17.8234Z" fill="#F46530"/>
</svg>
