<svg width="34" height="34" viewBox="0 0 34 34" fill="none" xmlns="http://www.w3.org/2000/svg">
<circle cx="17" cy="17" r="17" fill="#FEEBDB"/>
<path d="M11.6186 15.3497L12.2513 16.4571C12.5664 17.0084 12.7239 17.284 12.7239 17.5862C12.7239 17.8884 12.5664 18.1641 12.2513 18.7154L11.6186 19.8227C10.2094 22.2887 9.5049 23.5216 10.0543 24.1331C10.6037 24.7445 11.9047 24.1753 14.5067 23.0369L14.5068 23.0369L22.1997 19.6713C24.2429 18.7774 25.2644 18.3305 25.2644 17.5862C25.2644 16.842 24.2429 16.3951 22.1997 15.5012L14.5068 12.1355C11.9047 10.9971 10.6037 10.4279 10.0543 11.0394C9.5049 11.6508 10.2094 12.8838 11.6186 15.3497Z" stroke="#FB9A4D" stroke-width="1.13793"/>
</svg>
