<?xml version="1.0" encoding="UTF-8"?>
<svg width="24px" height="24px" viewBox="0 0 24 24" version="1.1" xmlns="http://www.w3.org/2000/svg" xmlns:xlink="http://www.w3.org/1999/xlink">
    <g stroke="none" stroke-width="1" fill="none" fill-rule="evenodd">
        <path d="M12,3C7.03,3 3,7.03 3,12C3,16.97 7.03,21 12,21C16.97,21 21,16.97 21,12C21,7.03 16.97,3 12,3ZM12,19C8.14,19 5,15.86 5,12C5,8.14 8.14,5 12,5C12.34,5 12.67,5.03 13,5.08C10.72,6.41 9,8.98 9,12C9,15.02 10.72,17.59 13,18.92C12.67,18.97 12.34,19 12,19Z" fill="#FFFFFF" fill-rule="nonzero"/>
        <path d="M17,8L19,6L16,6L15,3L14,6L11,6L13,8L12,11L15,9L18,11L17,8Z" fill="#FFFFFF" fill-rule="nonzero"/>
    </g>
</svg> 