<svg width="19" height="18" viewBox="0 0 19 18" fill="none" xmlns="http://www.w3.org/2000/svg">
<path d="M7.64377 3.62759C8.43037 1.6666 8.82368 0.686096 9.5 0.686096C10.1763 0.686096 10.5696 1.6666 11.3562 3.6276L11.3929 3.71891C11.8373 4.82678 12.0595 5.38071 12.5123 5.7174C12.9652 6.05409 13.5596 6.10733 14.7485 6.2138L14.9635 6.23305C16.9093 6.40732 17.8822 6.49445 18.0904 7.11343C18.2985 7.73242 17.576 8.38976 16.131 9.70445L15.6487 10.1432C14.9172 10.8087 14.5514 11.1415 14.381 11.5776C14.3492 11.659 14.3227 11.7423 14.3018 11.8271C14.1898 12.2818 14.2969 12.7645 14.5111 13.73L14.5778 14.0305C14.9714 15.8049 15.1683 16.692 14.8246 17.0747C14.6962 17.2177 14.5293 17.3206 14.3438 17.3712C13.8476 17.5066 13.1432 16.9326 11.7342 15.7845C10.809 15.0306 10.3464 14.6537 9.81535 14.5689C9.60644 14.5355 9.39356 14.5355 9.18466 14.5689C8.65355 14.6537 8.19097 15.0306 7.2658 15.7845C5.85684 16.9326 5.15237 17.5066 4.65617 17.3712C4.47075 17.3206 4.30384 17.2177 4.17542 17.0747C3.83174 16.692 4.02857 15.8049 4.42225 14.0305L4.48892 13.73C4.70313 12.7645 4.81024 12.2818 4.69818 11.8271C4.67728 11.7423 4.65084 11.659 4.61904 11.5776C4.44857 11.1415 4.08282 10.8087 3.35131 10.1432L2.86903 9.70445C1.42398 8.38976 0.701462 7.73242 0.909641 7.11343C1.11782 6.49445 2.09073 6.40732 4.03654 6.23305L4.25148 6.2138C5.44039 6.10733 6.03485 6.05409 6.4877 5.7174C6.94055 5.38071 7.16275 4.82678 7.60714 3.71891L7.64377 3.62759Z" stroke="#434343"/>
</svg>
