<?xml version="1.0" encoding="UTF-8"?>
<svg width="24px" height="24px" viewBox="0 0 24 24" version="1.1" xmlns="http://www.w3.org/2000/svg" xmlns:xlink="http://www.w3.org/1999/xlink">
    <g stroke="none" stroke-width="1" fill="none" fill-rule="evenodd">
        <path d="M12,2C6.48,2 2,6.48 2,12C2,17.52 6.48,22 12,22C17.52,22 22,17.52 22,12C22,6.48 17.52,2 12,2ZM12,20C7.59,20 4,16.41 4,12C4,7.59 7.59,4 12,4C16.41,4 20,7.59 20,12C20,16.41 16.41,20 12,20Z" fill="#FFFFFF" fill-rule="nonzero"/>
        <path d="M12,11C12.55,11 13,11.45 13,12C13,12.55 12.55,13 12,13C11.45,13 11,12.55 11,12C11,11.45 11.45,11 12,11Z" fill="#FFFFFF" fill-rule="nonzero"/>
        <path d="M12,8V10M12,14V16" stroke="#FFFFFF" stroke-width="2" stroke-linecap="round" stroke-linejoin="round"/>
        <path d="M7.05,9.05L8.46,10.46M15.54,10.46L16.95,9.05M7.05,14.95L8.46,13.54M15.54,13.54L16.95,14.95" stroke="#FFFFFF" stroke-width="1.5" stroke-linecap="round" stroke-linejoin="round"/>
    </g>
</svg> 