<?xml version="1.0" encoding="UTF-8"?>
<svg width="24px" height="24px" viewBox="0 0 24 24" version="1.1" xmlns="http://www.w3.org/2000/svg" xmlns:xlink="http://www.w3.org/1999/xlink">
    <g stroke="none" stroke-width="1" fill="none" fill-rule="evenodd">
        <path d="M12,2C12,2 17,8.5 17,14C17,17.87 14.87,21 12,21C9.13,21 7,17.87 7,14C7,8.5 12,2 12,2ZM12,5.5C12,5.5 9,10.7 9,14C9,16.1 10.34,18 12,18C13.66,18 15,16.1 15,14C15,10.7 12,5.5 12,5.5Z" fill="#FFFFFF" fill-rule="nonzero"/>
        <path d="M10,13C10,10.5 12,8 12,8C12,8 14,10.5 14,13C14,14.66 13.1,16 12,16C10.9,16 10,14.66 10,13Z" fill="#FFFFFF" fill-rule="nonzero"/>
    </g>
</svg> 