<svg width="140" height="140" viewBox="0 0 140 140" fill="none" xmlns="http://www.w3.org/2000/svg">
<path opacity="0.2" d="M126.875 70C126.875 76.8414 117.13 82.0039 114.472 88.4242C111.913 94.6148 115.248 105.186 110.217 110.217C105.186 115.248 94.6148 111.913 88.4242 114.472C82.0312 117.13 76.8359 126.875 70 126.875C63.1641 126.875 57.9687 117.13 51.5758 114.472C45.3852 111.913 34.8141 115.248 29.7828 110.217C24.7516 105.186 28.0875 94.6148 25.5281 88.4242C22.8703 82.0312 13.125 76.8359 13.125 70C13.125 63.1641 22.8703 57.9687 25.5281 51.5758C28.0875 45.3906 24.7516 34.8141 29.7828 29.7828C34.8141 24.7516 45.3906 28.0875 51.5758 25.5281C57.9961 22.8703 63.1641 13.125 70 13.125C76.8359 13.125 82.0312 22.8703 88.4242 25.5281C94.6148 28.0875 105.186 24.7516 110.217 29.7828C115.248 34.8141 111.913 45.3852 114.472 51.5758C117.13 57.9961 126.875 63.1641 126.875 70Z" fill="#C34DFF"/>
<path d="M123.517 56.2297C121.455 54.075 119.323 51.8547 118.519 49.9023C117.775 48.1141 117.731 45.15 117.688 42.2789C117.605 36.9414 117.518 30.893 113.312 26.6875C109.107 22.482 103.059 22.3945 97.7211 22.3125C94.85 22.2687 91.8859 22.225 90.0977 21.4812C88.1508 20.6773 85.925 18.5445 83.7703 16.4828C79.9969 12.857 75.7094 8.75 70 8.75C64.2906 8.75 60.0086 12.857 56.2297 16.4828C54.075 18.5445 51.8547 20.6773 49.9023 21.4812C48.125 22.225 45.15 22.2687 42.2789 22.3125C36.9414 22.3945 30.893 22.482 26.6875 26.6875C22.482 30.893 22.4219 36.9414 22.3125 42.2789C22.2687 45.15 22.225 48.1141 21.4812 49.9023C20.6773 51.8492 18.5445 54.075 16.4828 56.2297C12.857 60.0031 8.75 64.2906 8.75 70C8.75 75.7094 12.857 79.9914 16.4828 83.7703C18.5445 85.925 20.6773 88.1453 21.4812 90.0977C22.225 91.8859 22.2687 94.85 22.3125 97.7211C22.3945 103.059 22.482 109.107 26.6875 113.312C30.893 117.518 36.9414 117.605 42.2789 117.688C45.15 117.731 48.1141 117.775 49.9023 118.519C51.8492 119.323 54.075 121.455 56.2297 123.517C60.0031 127.143 64.2906 131.25 70 131.25C75.7094 131.25 79.9914 127.143 83.7703 123.517C85.925 121.455 88.1453 119.323 90.0977 118.519C91.8859 117.775 94.85 117.731 97.7211 117.688C103.059 117.605 109.107 117.518 113.312 113.312C117.518 109.107 117.605 103.059 117.688 97.7211C117.731 94.85 117.775 91.8859 118.519 90.0977C119.323 88.1508 121.455 85.925 123.517 83.7703C127.143 79.9969 131.25 75.7094 131.25 70C131.25 64.2906 127.143 60.0086 123.517 56.2297ZM117.201 77.7164C114.581 80.4508 111.869 83.2781 110.43 86.7508C109.052 90.0867 108.992 93.8984 108.938 97.5898C108.883 101.418 108.823 105.427 107.122 107.122C105.421 108.817 101.44 108.883 97.5898 108.938C93.8984 108.992 90.0867 109.052 86.7508 110.43C83.2781 111.869 80.4508 114.581 77.7164 117.201C74.982 119.82 72.1875 122.5 70 122.5C67.8125 122.5 64.9961 119.809 62.2836 117.201C59.5711 114.592 56.7219 111.869 53.2492 110.43C49.9133 109.052 46.1016 108.992 42.4102 108.938C38.582 108.883 34.5734 108.823 32.8781 107.122C31.1828 105.421 31.1172 101.44 31.0625 97.5898C31.0078 93.8984 30.9477 90.0867 29.5695 86.7508C28.1313 83.2781 25.4187 80.4508 22.7992 77.7164C20.1797 74.982 17.5 72.1875 17.5 70C17.5 67.8125 20.1906 64.9961 22.7992 62.2836C25.4078 59.5711 28.1313 56.7219 29.5695 53.2492C30.9477 49.9133 31.0078 46.1016 31.0625 42.4102C31.1172 38.582 31.1773 34.5734 32.8781 32.8781C34.5789 31.1828 38.5602 31.1172 42.4102 31.0625C46.1016 31.0078 49.9133 30.9477 53.2492 29.5695C56.7219 28.1313 59.5492 25.4187 62.2836 22.7992C65.018 20.1797 67.8125 17.5 70 17.5C72.1875 17.5 75.0039 20.1906 77.7164 22.7992C80.4289 25.4078 83.2781 28.1313 86.7508 29.5695C90.0867 30.9477 93.8984 31.0078 97.5898 31.0625C101.418 31.1172 105.427 31.1773 107.122 32.8781C108.817 34.5789 108.883 38.5602 108.938 42.4102C108.992 46.1016 109.052 49.9133 110.43 53.2492C111.869 56.7219 114.581 59.5492 117.201 62.2836C119.82 65.018 122.5 67.8125 122.5 70C122.5 72.1875 119.809 75.0039 117.201 77.7164ZM94.9703 53.7797C95.3771 54.186 95.6998 54.6685 95.92 55.1996C96.1401 55.7308 96.2534 56.3001 96.2534 56.875C96.2534 57.4499 96.1401 58.0192 95.92 58.5504C95.6998 59.0815 95.3771 59.564 94.9703 59.9703L64.3453 90.5953C63.939 91.0021 63.4565 91.3248 62.9254 91.545C62.3942 91.7651 61.8249 91.8784 61.25 91.8784C60.6751 91.8784 60.1058 91.7651 59.5746 91.545C59.0435 91.3248 58.561 91.0021 58.1547 90.5953L45.0297 77.4703C44.2088 76.6494 43.7476 75.536 43.7476 74.375C43.7476 73.214 44.2088 72.1006 45.0297 71.2797C45.8506 70.4588 46.964 69.9976 48.125 69.9976C49.286 69.9976 50.3994 70.4588 51.2203 71.2797L61.25 81.3148L88.7797 53.7797C89.186 53.3729 89.6685 53.0502 90.1996 52.8301C90.7308 52.6099 91.3001 52.4966 91.875 52.4966C92.4499 52.4966 93.0192 52.6099 93.5504 52.8301C94.0815 53.0502 94.564 53.3729 94.9703 53.7797Z" fill="#C34DFF"/>
</svg>
